PathFileType	4	(X/Y/Z)	Run_200 02
DataRate	CameraRate	NumFrames	NumMarkers	Units	OrigDataRate	OrigDataStartFrame	OrigNumFrames
100	100	4	45	mm	100	290	137
Frame#	Time	RASI			LPSI			RTH1			RTH2			RTH3			LTH1			LTH2			LTH3			RTB1			RTB2			RTB3			RLMAL			RMMAL			LTB1			LTB2			LTB3			RCAL			RTOE			RMT5			LCAL			LTOE			LMT5			LACR			RACR			CLAV			C7			LPSH			RUA1			RUA2			RUA3			RLEL			RMEL			LUA1			LUA2			LUA3			LLEL			LMEL			RFAsuperior			RFAradius			LFAsuperior			LFAradius			LFAulna			LASI			RFAulna			RPSI		
		X1	Y1	Z1	X2	Y2	Z2	X3	Y3	Z3	X4	Y4	Z4	X5	Y5	Z5	X6	Y6	Z6	X7	Y7	Z7	X8	Y8	Z8	X9	Y9	Z9	X10	Y10	Z10	X11	Y11	Z11	X12	Y12	Z12	X13	Y13	Z13	X14	Y14	Z14	X15	Y15	Z15	X16	Y16	Z16	X17	Y17	Z17	X18	Y18	Z18	X19	Y19	Z19	X20	Y20	Z20	X21	Y21	Z21	X22	Y22	Z22	X23	Y23	Z23	X24	Y24	Z24	X25	Y25	Z25	X26	Y26	Z26	X27	Y27	Z27	X28	Y28	Z28	X29	Y29	Z29	X30	Y30	Z30	X31	Y31	Z31	X32	Y32	Z32	X33	Y33	Z33	X34	Y34	Z34	X35	Y35	Z35	X36	Y36	Z36	X37	Y37	Z37	X38	Y38	Z38	X39	Y39	Z39	X40	Y40	Z40	X41	Y41	Z41	X42	Y42	Z42	X43	Y43	Z43	X44	Y44	Z44	X45	Y45	Z45	

290	  2.900000	986.582386	1028.579353	-358.788017	807.864894	1062.517159	-511.817372	941.520906	763.733760	-314.854480	1029.444348	709.947605	-338.397451	981.007377	599.610055	-341.222647	910.341118	818.770241	-650.356858	1009.342259	731.116549	-649.254026	985.293821	621.747746	-634.975831	932.955072	391.142995	-372.488716	861.109535	399.213383	-336.807558	768.329695	310.610634	-373.276688	651.451326	289.442486	-355.125073	682.493890	269.276332	-432.737466	1040.086292	392.258996	-600.238930	934.670404	312.871907	-629.990991	969.288799	212.914063	-580.864078	607.456949	317.989436	-426.086912	687.903503	116.717718	-372.080556	638.253884	176.010273	-311.070844	827.906105	 86.813150	-536.561880	1054.966447	 72.298431	-557.301542	993.204203	 55.724878	-624.691566	925.712918	1511.967301	-659.344706	943.497376	1513.785821	-335.141902	1012.497039	1456.413377	-471.992148	895.784039	1545.344241	-498.552423	844.947030	1473.739605	-663.902569	892.742482	1371.798614	-236.939819	810.221808	1325.442077	-248.517095	814.812709	1275.540251	-197.355286	827.629163	1208.653725	-170.853162	787.435972	1194.626768	-247.602185	836.562889	1383.735981	-722.545667	772.013403	1313.718928	-686.793627	777.535476	1262.854629	-741.951802	769.788189	1184.598647	-760.256809	753.933476	1181.052505	-672.777583	871.287667	1143.166973	-195.376046	1036.765959	1128.949572	-312.842267	834.085325	1117.707399	-726.657372	1001.777685	1141.587025	-680.166091	992.187701	1074.270920	-688.785181	970.213261	1036.151096	-595.293998	1024.797841	1073.498492	-275.682870	813.493876	1055.910000	-423.558676	
291	  2.910000	983.412339	1027.743971	-358.359018	805.364503	1060.952044	-512.979259	945.114906	763.137935	-316.275838	1036.091308	712.669224	-339.522566	991.628161	600.692772	-342.218966	906.496417	816.844083	-651.267641	1003.777437	726.697105	-649.871827	977.609900	618.380276	-635.315130	948.747577	392.856990	-375.386182	876.957076	399.823670	-337.427072	785.686640	308.934034	-373.923567	669.056453	286.077147	-355.189557	700.435902	266.626763	-432.858702	1028.423416	387.960480	-600.462050	921.202960	311.355648	-630.631128	952.578465	210.944473	-581.068284	623.093386	312.610357	-426.021278	712.376017	115.335278	-371.517530	660.635374	172.616406	-310.571609	807.787575	 87.272286	-537.349083	1035.013371	 71.975496	-557.948414	973.063888	 55.596632	-625.318898	927.713379	1509.012222	-659.198403	941.121489	1512.513969	-334.612614	1010.769639	1454.170314	-470.795834	894.495515	1543.524758	-498.774717	847.106358	1471.388818	-664.777409	887.141488	1371.699556	-237.325625	804.796679	1325.966656	-252.187723	808.008874	1276.377696	-200.287602	819.167318	1209.351187	-173.011657	781.064344	1195.346394	-249.962474	842.096445	1377.292761	-723.343971	780.144877	1302.703292	-692.774501	791.238007	1252.807169	-748.394765	787.817512	1174.650928	-766.641951	767.076292	1169.649674	-680.300486	859.843097	1139.870741	-193.164233	1027.533371	1109.821130	-305.540712	850.336279	1107.118902	-732.132669	1015.908154	1128.887622	-678.320647	1005.566099	1061.829640	-688.915018	968.029432	1033.711488	-595.769535	1011.751728	1058.558155	-263.985058	811.259042	1054.078990	-425.153965	
292	  2.920000	980.568327	1027.811201	-358.353107	803.102601	1060.421696	-514.065326	948.649417	763.691144	-317.164674	1042.220798	716.255917	-340.013989	1001.717453	602.855062	-342.806453	902.171222	815.971189	-651.956320	998.455254	723.608551	-649.943171	970.052378	616.279277	-636.093772	964.340859	395.250765	-377.610975	892.797041	400.519703	-337.857922	803.834845	306.918290	-374.151338	687.470045	281.155846	-355.227519	719.659768	262.716517	-432.824382	1015.818291	384.581639	-600.664884	906.492860	310.875297	-630.985388	935.514990	209.624096	-581.492965	639.854279	305.554002	-425.924584	738.473234	113.052172	-370.792692	684.082469	167.908909	-310.160236	787.601195	 87.807784	-538.037973	1014.974618	 71.725019	-558.461306	952.922506	 55.469047	-625.833171	929.844860	1507.211089	-658.946995	938.896669	1511.607754	-333.898472	1009.111120	1452.784670	-469.553110	893.316698	1542.681078	-499.058321	849.559920	1470.002082	-665.948815	882.087371	1371.791151	-237.459728	799.627684	1327.081598	-254.785410	801.399244	1277.798880	-202.305982	810.601439	1210.580548	-173.961071	774.258993	1196.749225	-251.434274	847.611863	1372.183131	-723.555798	789.152146	1293.582272	-698.394025	805.308788	1244.739520	-753.886735	805.901065	1166.903967	-771.756750	780.337920	1160.547603	-686.723771	848.450869	1138.037680	-190.769698	1016.648301	1093.961992	-298.558326	867.199819	1099.337461	-735.803908	1030.125829	1120.896135	-675.463105	1019.994611	1053.919759	-687.939966	965.983398	1032.392635	-596.295753	998.150953	1047.097267	-253.233559	808.866163	1053.232558	-426.358715	
293	  2.930000	978.041110	1028.470916	-358.532779	800.851638	1060.788609	-514.586848	952.044129	765.320851	-317.388154	1047.787238	720.746212	-340.074853	1011.051195	606.262184	-343.018253	897.430550	815.786410	-652.316747	992.676879	721.593636	-649.722533	962.020293	614.895600	-636.905292	979.713163	398.190257	-378.785720	908.412004	401.263543	-338.088560	822.600829	304.810782	-373.828820	706.742628	274.867264	-355.197286	739.871642	257.782680	-432.794872	1002.302234	381.962229	-600.951809	890.934674	310.866979	-631.042477	918.147069	208.644755	-581.768269	657.640055	296.902569	-425.807882	766.024546	109.970644	-370.104867	708.802611	162.081079	-309.683207	767.358713	 88.357808	-538.410574	994.989253	 71.338955	-558.789205	932.828183	 55.437559	-626.252362	931.833239	1506.747754	-658.681562	936.808755	1511.053151	-333.132444	1007.578824	1452.237266	-468.325303	892.337669	1542.627106	-499.154235	852.027285	1469.216944	-667.502394	877.351668	1372.159524	-237.264142	794.287574	1328.933046	-256.031710	794.409160	1279.872376	-203.227276	801.453851	1212.675869	-173.713107	766.754752	1198.861811	-251.915237	853.665273	1368.617916	-724.105990	798.240938	1287.145651	-703.377620	818.769229	1239.035408	-758.073152	823.033473	1161.495241	-775.514903	793.133131	1154.071138	-691.633479	836.992165	1138.012079	-188.035584	1004.915003	1082.761528	-291.256227	884.008570	1094.745086	-737.323734	1043.935952	1118.653463	-671.513641	1035.169019	1051.567368	-685.163363	963.948416	1032.135694	-596.538166	984.475638	1039.426453	-243.575870	806.077514	1053.425152	-426.612046	
